<?xml version="1.0" encoding="UTF-8"?>
<svg version="1.1" viewBox="0 0 2000 2000" width="500" height="500" xmlns="http://www.w3.org/2000/svg">
<path transform="translate(0)" d="m0 0h2e3v2e3h-2e3z" fill="#FEFEFE"/>
<path transform="translate(1129,814)" d="m0 0h15l23 2 25 5 16 6 15 9 13 11 10 12 9 16 6 17 4 18 2 18v26l-2 19-5 21-6 16-9 15-9 11h-2l-1 3-12 9-12 7-22 8-22 4-11 1h-31l-9-2-10-6-5-7-3-9-1-10v-189l3-12 3-6 5-5 8-5 6-2z" fill="#FEFEFE"/>
<path transform="translate(1538,810)" d="m0 0 2 1-1 25-6-1-13-5-32-8-19-3-23-2-17-1h-35l-10 5-6 8-4 11-1 9-1 74h159l1 1v9l-1 8-67 1h-92v40l1 51 2 14 6 12 6 5 5 2 7 1h18l37-2 26-3 24-5 21-6 11-4h4v13l-1 12h-219l-4-1v-2l16-2 8-4 6-8 4-13 1-10v-182l-2-14-4-9-7-8-10-4-12-1v-3z" fill="#050505"/>
<path transform="translate(1038,811)" d="m0 0h139l19 3 19 6 16 8 11 8 12 11 10 12 9 16 6 14 5 19 2 12 1 14v14l-2 22-5 22-8 20-10 16-12 13-8 7-14 9-15 7-18 5-13 2-13 1h-129l-1-3 16-2 8-4 6-8 4-12 1-11v-185l-2-11-4-10-6-7-10-4-12-1-2-1zm91 3-13 2-9 5-5 5-3 4-3 9-1 6v189l2 14 4 8 5 5 8 5 9 2h31l17-2 19-4 21-8 16-10 7-6v-2l3-1 8-10 10-17 7-21 4-21 1-12v-26l-3-24-5-19-8-18-9-13-10-11-12-9-12-7-16-6-25-5-23-2z" fill="#050505"/>
<path transform="translate(1572,811)" d="m0 0h26l9 10 8 10 11 13 9 11 11 13 9 11 11 13 14 17 12 14 5 6h2l6-10 8-12 15-24 8-16 5-13 2-9v-15l-3-6-7-6-10-3-7-1-1-3h102l-1 3-15 3-15 8-12 11-12 12-22 28-13 19-20 30-5 8 2 4 8 10 9 11 11 13 8 10 12 14 8 10 12 14 8 10 11 13 11 14 12 13v3h-25l-12-13-18-22-12-14-8-10-12-14-8-10-11-13-9-11-10-12-4 2-9 15-11 17-12 20-7 15-4 14-1 12 3 10 5 5 5 3 15 3 1 2-5 1h-96l-1-3 15-3 15-8 13-11 9-9 11-14 14-18 14-20 24-36-1-6-9-10-11-14-9-10-11-14-9-10-11-14-9-10-11-14-9-10-11-14-10-11z" fill="#050505"/>
<path transform="translate(865,837)" d="m0 0 3 3 11 25 19 41 13 29 14 32 11 25v4h-132l1-7 10-28 6-17 15-38 28-68z" fill="#FEFEFE"/>
<path transform="translate(270,838)" d="m0 0 3 1 14 30 15 33 16 35 24 56v3h-132l1-7 14-40 26-65 15-36z" fill="#FEFEFE"/>
<path transform="translate(279,810)" d="m0 0 4 1 7 15 12 28 17 39 20 46 15 34 15 35 13 29 9 15 6 7 10 6 7 2 16 2v2l-5 1h-89l-7-1v-2l4-1 16-1 9-3 4-4 1-6-3-12-9-25-6-15-1-1h-136l-5 19-2 12v12l4 12 7 6 10 4 6 1 17 1 3 3-3 1h-112l-3-1v-2l19-3 10-5 8-7 10-15 11-23 13-30 15-35 18-40 9-21 20-46 5-12-3-10-4-8v-3zm-9 28-17 41-26 65-15 42-2 6v4h132l-1-5-11-26-18-41-16-35-15-33-8-17z" fill="#050505"/>
<path transform="translate(855,811)" d="m0 0h22l5 10 11 26 20 46 14 32 20 46 13 30 16 36 9 15 6 7 10 6 13 3 10 1v2l-3 1h-93l-5-2 4-2 16-1 9-3 4-4 1-5-3-14-15-39v-2h-137l-4 17-3 14v14l3 9 6 7 12 5 25 3 1 2-5 1h-109l-4-1v-2l19-3 10-5 8-7 7-10 6-10 18-41 13-30 15-34 18-41 24-56-1-5-6-14zm10 26-6 13-12 29-11 27-16 41-10 27-6 17v5h132l-1-6-11-25-14-32-15-33-16-35-12-27z" fill="#050505"/>
<path transform="translate(590,807)" d="m0 0h33l28 4 17 5 17 6 1 4-5 11-2 6-9-3-17-7-21-7-22-5-16-2-17-1-20 2-16 4-16 7-10 7-10 9-10 12-8 15-6 18-3 15-1 9v31l4 20 6 17 10 19 9 12 11 12 11 11 17 13 21 11 18 6 10 2 22 1 14-2 15-5 11-6 12-9 8-9 3-1 11 13-1 3-13 8-16 6-16 4-23 3h-24l-23-3-21-5-16-6-16-8-14-10-10-9-7-7-9-12-9-15-8-20-4-17-1-7v-30l4-22 6-17 8-16 9-13 12-13 12-11 16-10 14-7 18-6 22-4z" fill="#050505"/>
<path transform="translate(688,1183)" d="m0 0h28l7 2 5 6 1 7-3 7-2 5 4 2 3 4 1 7-3 7-5 4-7 2h-29l-1-1v-33z" fill="#050505"/>
<path transform="translate(996,1183)" d="m0 0h11l4 2 3 5v7l-6 7-5 3 7 8 7 6 4-10h2l1 6-3 6 1 4 6 8-4 1-6-5-5 2-7 3-9 1-9-3-6-7-1-5 3-8 6-5 3-2-2-5-3-6 1-7 5-5z" fill="#050505"/>
<path transform="translate(1188,1183)" d="m0 0h37l-1 4-1 1h-29l1 18 27 1v4l-27 1v18l31 1-1 5h-36l-1-1z" fill="#050505"/>
<path transform="translate(773,1183)" d="m0 0h5l1 1v22l1 14 3 6 3 3 3 1h12l6-4 2-4 1-7 1-32 5 1v37l-4 8-6 5-5 2h-13l-8-4-5-6-2-7-1-12z" fill="#050505"/>
<path transform="translate(1126,1182)" d="m0 0 12 1 5 3 2 2v3l-5-1-7-2h-7l-7 3-3 4v7l5 2 19 6 7 6 1 9-4 6-6 4-3 1h-13l-9-3-5-5v-2l5 1 9 3h12l6-3 1-2v-6l-3-3-9-3-14-5-5-6v-9l4-6 7-4z" fill="#050505"/>
<path transform="translate(694,1211)" d="m0 0 26 1 5 5 1 2v6l-5 5-4 1h-23l-1-1v-18z" fill="#FEFEFE"/>
<path transform="translate(693,1188)" d="m0 0h23l5 2 2 4v7l-5 5-13 1h-10l-2-1z" fill="#FEFEFE"/>
<path transform="translate(854,1182)" d="m0 0 4 1 6 7 12 20 2 1 8-14 8-12 2-2 4 1-6 11-12 20-2 10-1 10-4 1-1-1-1-16-3-7-10-17-6-10z" fill="#050505"/>
<path transform="translate(1341,1183)" d="m0 0 5 1 1 46 29 1v4l-3 1h-32l-1-1v-43z" fill="#050505"/>
<path transform="translate(1268,1183)" d="m0 0 5 1v47h30l1 2-1 2-4 1h-31l-1-1v-38z" fill="#050505"/>
<path transform="translate(997,1210)" d="m0 0 4 2 9 10 3 3-1 3-5 3-8 1-8-2-4-5v-6l6-7z" fill="#FEFEFE"/>
<path transform="translate(1e3 1186)" d="m0 0 6 2 2 3-1 7-6 5-5-1-3-4-1-6 4-5z" fill="#FEFEFE"/>
</svg>
